<svg width="148" height="148" viewBox="0 0 148 148" fill="none" xmlns="http://www.w3.org/2000/svg">
<g filter="url(#filter0_d_431_18688)">
<path fill-rule="evenodd" clip-rule="evenodd" d="M74 98C87.2548 98 98 87.2548 98 74C98 60.7452 87.2548 50 74 50C60.7452 50 50 60.7452 50 74C50 87.2548 60.7452 98 74 98ZM71.1094 64.3359C70.4957 63.9268 69.7066 63.8886 69.0563 64.2367C68.406 64.5847 68 65.2624 68 66V82C68 82.7376 68.406 83.4153 69.0563 83.7634C69.7066 84.1114 70.4957 84.0732 71.1094 83.6641L83.1094 75.6641C83.6658 75.2932 84 74.6687 84 74C84 73.3313 83.6658 72.7068 83.1094 72.3359L71.1094 64.3359Z" fill="white"/>
</g>
<defs>
<filter id="filter0_d_431_18688" x="0" y="0" width="148" height="148" filterUnits="userSpaceOnUse" color-interpolation-filters="sRGB">
<feFlood flood-opacity="0" result="BackgroundImageFix"/>
<feColorMatrix in="SourceAlpha" type="matrix" values="0 0 0 0 0 0 0 0 0 0 0 0 0 0 0 0 0 0 127 0" result="hardAlpha"/>
<feOffset/>
<feGaussianBlur stdDeviation="25"/>
<feComposite in2="hardAlpha" operator="out"/>
<feColorMatrix type="matrix" values="0 0 0 0 0 0 0 0 0 0 0 0 0 0 0 0 0 0 0.25 0"/>
<feBlend mode="normal" in2="BackgroundImageFix" result="effect1_dropShadow_431_18688"/>
<feBlend mode="normal" in="SourceGraphic" in2="effect1_dropShadow_431_18688" result="shape"/>
</filter>
</defs>
</svg>
