<svg width="148" height="148" viewBox="0 0 148 148" fill="none" xmlns="http://www.w3.org/2000/svg">
<g filter="url(#filter0_d_431_18845)">
<path fill-rule="evenodd" clip-rule="evenodd" d="M74 98C87.2548 98 98 87.2548 98 74C98 60.7452 87.2548 50 74 50C60.7452 50 50 60.7452 50 74C50 87.2548 60.7452 98 74 98ZM68 67C68 65.8954 68.8954 65 70 65C71.1046 65 72 65.8954 72 67V81C72 82.1046 71.1046 83 70 83C68.8954 83 68 82.1046 68 81V67ZM76 67C76 65.8954 76.8954 65 78 65C79.1046 65 80 65.8954 80 67V81C80 82.1046 79.1046 83 78 83C76.8954 83 76 82.1046 76 81V67Z" fill="white"/>
</g>
<defs>
<filter id="filter0_d_431_18845" x="0" y="0" width="148" height="148" filterUnits="userSpaceOnUse" color-interpolation-filters="sRGB">
<feFlood flood-opacity="0" result="BackgroundImageFix"/>
<feColorMatrix in="SourceAlpha" type="matrix" values="0 0 0 0 0 0 0 0 0 0 0 0 0 0 0 0 0 0 127 0" result="hardAlpha"/>
<feOffset/>
<feGaussianBlur stdDeviation="25"/>
<feComposite in2="hardAlpha" operator="out"/>
<feColorMatrix type="matrix" values="0 0 0 0 0 0 0 0 0 0 0 0 0 0 0 0 0 0 0.25 0"/>
<feBlend mode="normal" in2="BackgroundImageFix" result="effect1_dropShadow_431_18845"/>
<feBlend mode="normal" in="SourceGraphic" in2="effect1_dropShadow_431_18845" result="shape"/>
</filter>
</defs>
</svg>
