<svg width="12" height="12" viewBox="0 0 12 12" fill="none" xmlns="http://www.w3.org/2000/svg">
<path fill-rule="evenodd" clip-rule="evenodd" d="M2.84081 2.71831C2.84081 1.93384 2.20488 1.29791 1.42041 1.29791C0.635938 1.29791 -3.27669e-07 1.93384 -4.05712e-07 2.71831L-3.27568e-07 4.50607C-3.13808e-07 4.82084 0.10456 5.1267 0.297257 5.3756C1.27277 6.63565 2.24828 7.89568 3.22644 9.15912L2.71837 9.15912C1.9339 9.15912 1.29796 9.79506 1.29796 10.5795C1.29796 11.364 1.9339 11.9999 2.71837 11.9999L4.50612 11.9999C4.82089 11.9999 5.12675 11.8954 5.37565 11.7027C6.63725 10.726 7.89696 9.75071 9.15918 8.7735L9.15918 9.28157C9.15918 10.066 9.79512 10.702 10.5796 10.702C11.3641 10.702 12 10.066 12 9.28157L12 7.49382C12 7.17904 11.8954 6.87319 11.7027 6.62428C10.7251 5.36147 9.75328 4.10625 8.77356 2.84076L9.28163 2.84076C10.0661 2.84076 10.702 2.20482 10.702 1.42036C10.702 0.635887 10.0661 -5.19384e-05 9.28163 -5.19041e-05L7.49387 -5.1826e-05C7.1791 -5.18122e-05 6.87324 0.104509 6.62434 0.297206C5.36152 1.27487 4.1063 2.24666 2.84081 3.22638L2.84081 2.71831ZM4.19549 5.77028L5.77033 7.80445L7.8045 6.22961L6.22966 4.19544L4.19549 5.77028Z" fill="#FFB340"/>
</svg>
