<svg width="24" height="24" viewBox="0 0 24 24" fill="none" xmlns="http://www.w3.org/2000/svg">
<path fill-rule="evenodd" clip-rule="evenodd" d="M20 19C20 19.5523 19.5523 20 19 20H5C4.44772 20 4 19.5523 4 19V9.17681C4 8.81364 4.19689 8.47902 4.51436 8.30265L12 4.14396L19.4856 8.30265C19.8031 8.47902 20 8.81364 20 9.17681V19ZM19 22C20.6569 22 22 20.6569 22 19V9.17681C22 8.08731 21.4093 7.08344 20.4569 6.55434L12.4856 2.12584C12.1836 1.95805 11.8164 1.95805 11.5144 2.12584L3.54307 6.55434C2.59068 7.08344 2 8.08731 2 9.17681V19C2 20.6569 3.34315 22 5 22H19ZM14 16C14.5523 16 15 15.5523 15 15C15 14.4477 14.5523 14 14 14H10C9.44772 14 9 14.4477 9 15C9 15.5523 9.44772 16 10 16H14Z" fill="#F1F1F1"/>
</svg>
