<svg width="30" height="15" viewBox="0 0 30 15" fill="none" xmlns="http://www.w3.org/2000/svg">
<path d="M0 3C0 1.34315 1.34315 0 3 0H27C28.6569 0 30 1.34315 30 3V12C30 13.6569 28.6569 15 27 15H3C1.34315 15 0 13.6569 0 12V3Z" fill="#FFB340"/>
<path d="M10 6.375C10 6.16789 10.2239 6 10.5 6C10.7761 6 11 6.16789 11 6.375V11.625C11 11.8321 10.7761 12 10.5 12C10.2239 12 10 11.8321 10 11.625V6.375Z" fill="#1C1C1E"/>
<path d="M4 3.5625C4 3.25184 4.22386 3 4.5 3C4.77614 3 5 3.25184 5 3.5625V11.4375C5 11.7482 4.77614 12 4.5 12C4.22386 12 4 11.7482 4 11.4375V3.5625Z" fill="#1C1C1E"/>
<path d="M16 3.5625C16 3.25184 16.2239 3 16.5 3C16.7761 3 17 3.25184 17 3.5625V11.4375C17 11.7482 16.7761 12 16.5 12C16.2239 12 16 11.7482 16 11.4375V3.5625Z" fill="#1C1C1E"/>
<path d="M22 3.5625C22 3.25184 22.2239 3 22.5 3C22.7761 3 23 3.25184 23 3.5625V11.4375C23 11.7482 22.7761 12 22.5 12C22.2239 12 22 11.7482 22 11.4375V3.5625Z" fill="#1C1C1E"/>
<path fill-rule="evenodd" clip-rule="evenodd" d="M11 4V7H12.5C13.3284 7 14 6.32843 14 5.5C14 4.67157 13.3284 4 12.5 4H11ZM10.5 3C10.2239 3 10 3.22386 10 3.5V8H12.5C13.8807 8 15 6.88071 15 5.5C15 4.11929 13.8807 3 12.5 3H10.5Z" fill="#1C1C1E"/>
<path fill-rule="evenodd" clip-rule="evenodd" d="M12.8246 7.03197C13.0831 6.93501 13.3713 7.06601 13.4683 7.32457L14.9683 11.3246C15.0653 11.5831 14.9343 11.8713 14.6757 11.9683C14.4171 12.0653 14.1289 11.9343 14.032 11.6757L12.532 7.6757C12.435 7.41714 12.566 7.12893 12.8246 7.03197Z" fill="#1C1C1E"/>
<path fill-rule="evenodd" clip-rule="evenodd" d="M4 3.5C4 3.22386 4.22386 3 4.5 3H8.5C8.77614 3 9 3.22386 9 3.5C9 3.77614 8.77614 4 8.5 4H4.5C4.22386 4 4 3.77614 4 3.5Z" fill="#1C1C1E"/>
<path fill-rule="evenodd" clip-rule="evenodd" d="M16 3.5C16 3.22386 16.2239 3 16.5 3H20.5C20.7761 3 21 3.22386 21 3.5C21 3.77614 20.7761 4 20.5 4H16.5C16.2239 4 16 3.77614 16 3.5Z" fill="#1C1C1E"/>
<path fill-rule="evenodd" clip-rule="evenodd" d="M22 3.5C22 3.22386 22.2239 3 22.5 3H26.5C26.7761 3 27 3.22386 27 3.5C27 3.77614 26.7761 4 26.5 4H22.5C22.2239 4 22 3.77614 22 3.5Z" fill="#1C1C1E"/>
<path fill-rule="evenodd" clip-rule="evenodd" d="M16 11.5C16 11.2239 16.2239 11 16.5 11H20.5C20.7761 11 21 11.2239 21 11.5C21 11.7761 20.7761 12 20.5 12H16.5C16.2239 12 16 11.7761 16 11.5Z" fill="#1C1C1E"/>
<path fill-rule="evenodd" clip-rule="evenodd" d="M22 11.5C22 11.2239 22.2239 11 22.5 11H26.5C26.7761 11 27 11.2239 27 11.5C27 11.7761 26.7761 12 26.5 12H22.5C22.2239 12 22 11.7761 22 11.5Z" fill="#1C1C1E"/>
<path fill-rule="evenodd" clip-rule="evenodd" d="M4 7.5C4 7.22386 4.22386 7 4.5 7L8 7C8.27614 7 8.5 7.22386 8.5 7.5C8.5 7.77614 8.27614 8 8 8L4.5 8C4.22386 8 4 7.77614 4 7.5Z" fill="#1C1C1E"/>
<path fill-rule="evenodd" clip-rule="evenodd" d="M16 7.5C16 7.22386 16.2239 7 16.5 7L20 7C20.2761 7 20.5 7.22386 20.5 7.5C20.5 7.77614 20.2761 8 20 8L16.5 8C16.2239 8 16 7.77614 16 7.5Z" fill="#1C1C1E"/>
<path fill-rule="evenodd" clip-rule="evenodd" d="M22 7.5C22 7.22386 22.2239 7 22.5 7L26 7C26.2761 7 26.5 7.22386 26.5 7.5C26.5 7.77614 26.2761 8 26 8L22.5 8C22.2239 8 22 7.77614 22 7.5Z" fill="#1C1C1E"/>
</svg>
