<svg width="24" height="24" viewBox="0 0 24 24" fill="none" xmlns="http://www.w3.org/2000/svg">
<path d="M4 20L3.00612 19.8896C2.97257 20.1915 3.07809 20.4923 3.29289 20.7071C3.5077 20.9219 3.80851 21.0274 4.11043 20.9939L4 20ZM8.38213 18.9291L7.67502 18.222L8.38213 18.9291ZM7.87648 19.3869L8.42699 20.2217L7.87648 19.3869ZM6.80157 19.6887L6.912 20.6826H6.912L6.80157 19.6887ZM7.47496 19.5799L7.16697 18.6285L7.47496 19.5799ZM5.07094 15.6179L4.36384 14.9108L5.07094 15.6179ZM4.6131 16.1235L3.77827 15.573L4.6131 16.1235ZM4.31128 17.1984L5.30517 17.3089L4.31128 17.1984ZM4.42012 16.525L5.37151 16.833L4.42012 16.525ZM19.3142 7.99696L20.0214 8.70406L19.3142 7.99696ZM16.0031 4.68577L16.7102 5.39287V5.39287L16.0031 4.68577ZM16.1238 11.1875C16.5143 11.578 17.1474 11.578 17.538 11.1875C17.9285 10.7969 17.9285 10.1638 17.538 9.77324L16.1238 11.1875ZM14.2268 6.46205C13.8363 6.07153 13.2031 6.07153 12.8126 6.46205C12.422 6.85258 12.422 7.48574 12.8126 7.87627L14.2268 6.46205ZM5.77805 16.325L16.7102 5.39287L15.296 3.97866L4.36384 14.9108L5.77805 16.325ZM18.6071 7.28985L7.67502 18.222L9.08923 19.6362L20.0214 8.70406L18.6071 7.28985ZM6.69114 18.6948L3.88957 19.0061L4.11043 20.9939L6.912 20.6826L6.69114 18.6948ZM4.99388 20.1104L5.30517 17.3089L3.3174 17.088L3.00612 19.8896L4.99388 20.1104ZM7.67502 18.222C7.40317 18.4938 7.36196 18.5283 7.32597 18.5521L8.42699 20.2217C8.67172 20.0603 8.87404 19.8514 9.08923 19.6362L7.67502 18.222ZM6.912 20.6826C7.21448 20.649 7.50404 20.6216 7.78295 20.5313L7.16697 18.6285C7.12595 18.6418 7.07323 18.6524 6.69114 18.6948L6.912 20.6826ZM7.32597 18.5521C7.27665 18.5846 7.22317 18.6103 7.16697 18.6285L7.78295 20.5313C8.01059 20.4576 8.22723 20.3535 8.42699 20.2217L7.32597 18.5521ZM4.36384 14.9108C4.14864 15.126 3.93966 15.3283 3.77827 15.573L5.44792 16.674C5.47166 16.638 5.5062 16.5968 5.77805 16.325L4.36384 14.9108ZM5.30517 17.3089C5.34762 16.9268 5.35823 16.8741 5.37151 16.833L3.46873 16.217C3.37844 16.496 3.35101 16.7855 3.3174 17.088L5.30517 17.3089ZM3.77827 15.573C3.64655 15.7728 3.54242 15.9894 3.46873 16.217L5.37151 16.833C5.3897 16.7768 5.41541 16.7233 5.44792 16.674L3.77827 15.573ZM18.6071 5.39288C19.131 5.91671 19.131 6.76601 18.6071 7.28985L20.0214 8.70406C21.3262 7.39918 21.3262 5.28355 20.0214 3.97866L18.6071 5.39288ZM20.0214 3.97866C18.7165 2.67378 16.6008 2.67378 15.296 3.97866L16.7102 5.39287C17.234 4.86904 18.0833 4.86904 18.6071 5.39288L20.0214 3.97866ZM17.538 9.77324L14.2268 6.46205L12.8126 7.87627L16.1238 11.1875L17.538 9.77324Z" fill="#F1F1F1"/>
</svg>
