<svg width="16" height="16" viewBox="0 0 16 16" fill="none" xmlns="http://www.w3.org/2000/svg">
<path d="M1.5 7.20166C1.5 6.74309 1.50467 6.6131 1.53762 6.5C1.571 6.38541 1.62614 6.27663 1.70112 6.17923L1.30491 5.87424L1.70112 6.17923C1.77635 6.08149 1.88447 5.99523 2.26018 5.71445L7.5353 1.77214C7.84401 1.54143 7.88964 1.51854 7.92262 1.50996C7.97318 1.4968 8.02682 1.4968 8.07738 1.50996C8.11036 1.51854 8.15599 1.54143 8.4647 1.77214L13.7398 5.71445C14.1155 5.99523 14.2236 6.08149 14.2989 6.17923C14.3739 6.27663 14.429 6.38541 14.4624 6.5C14.4953 6.6131 14.5 6.74309 14.5 7.20166V12.6086C14.5 13.0357 14.4996 13.3248 14.4806 13.5479C14.4622 13.7646 14.429 13.8738 14.3887 13.9497C14.2903 14.1354 14.1311 14.29 13.9308 14.3881C13.8449 14.4302 13.7237 14.4632 13.4937 14.4813C13.2584 14.4997 12.9546 14.5001 12.5111 14.5001H3.48889C3.04536 14.5001 2.74162 14.4997 2.50634 14.4813C2.27633 14.4632 2.15514 14.4302 2.0692 14.3881C1.86887 14.29 1.70974 14.1354 1.61128 13.9497C1.57103 13.8738 1.53782 13.7646 1.5194 13.5479C1.50042 13.3248 1.5 13.0357 1.5 12.6086V7.20166Z" stroke="#999999" stroke-linecap="round" stroke-linejoin="round"/>
<path d="M9.5 9C9.5 9.82843 8.82843 10.5 8 10.5C7.17157 10.5 6.5 9.82843 6.5 9C6.5 8.17157 7.17157 7.5 8 7.5C8.82843 7.5 9.5 8.17157 9.5 9Z" stroke="#FFB340" stroke-linecap="round" stroke-linejoin="round"/>
</svg>
