<svg width="40" height="40" viewBox="0 0 40 40" fill="none" xmlns="http://www.w3.org/2000/svg">
<circle cx="20" cy="20" r="19.5" stroke="#EA4335"/>
<g clip-path="url(#clip0_925_5590)">
<path d="M31.766 20.2763C31.766 19.4605 31.6999 18.6404 31.5588 17.8379H20.24V22.4589H26.7217C26.4528 23.9492 25.5885 25.2676 24.323 26.1054V29.1037H28.19C30.4608 27.0137 31.766 23.9272 31.766 20.2763Z" fill="#4285F4"/>
<path d="M20.24 32.0013C23.4764 32.0013 26.2058 30.9387 28.1944 29.1044L24.3274 26.106C23.2516 26.838 21.8626 27.2525 20.2444 27.2525C17.1138 27.2525 14.4593 25.1404 13.5069 22.3008H9.51648V25.3917C11.5536 29.4439 15.7028 32.0013 20.24 32.0013Z" fill="#34A853"/>
<path d="M13.5025 22.3007C12.9999 20.8103 12.9999 19.1965 13.5025 17.7062V14.6152H9.51649C7.81449 18.006 7.81449 22.0009 9.51649 25.3916L13.5025 22.3007Z" fill="#FBBC04"/>
<path d="M20.24 12.7497C21.9508 12.7232 23.6043 13.367 24.8433 14.5487L28.2694 11.1226C26.1 9.0855 23.2207 7.96553 20.24 8.00081C15.7028 8.00081 11.5536 10.5582 9.51648 14.6148L13.5025 17.7058C14.4505 14.8617 17.1094 12.7497 20.24 12.7497Z" fill="#EA4335"/>
</g>
<defs>
<clipPath id="clip0_925_5590">
<rect width="24" height="24" fill="white" transform="translate(8 8)"/>
</clipPath>
</defs>
</svg>
