<svg width="72" height="72" viewBox="0 0 72 72" fill="none" xmlns="http://www.w3.org/2000/svg">
<circle cx="36" cy="36" r="36" fill="#2F2F30"/>
<path fill-rule="evenodd" clip-rule="evenodd" d="M26.5263 24.6319C26.5263 19.3997 30.7678 15.1582 36 15.1582C41.2322 15.1582 45.4737 19.3997 45.4737 24.6319C45.4737 29.8641 41.2322 34.1056 36 34.1056C30.7678 34.1056 26.5263 29.8641 26.5263 24.6319Z" fill="#FFB340"/>
<path fill-rule="evenodd" clip-rule="evenodd" d="M3.78947 36C3.78947 18.2106 18.2106 3.78947 36 3.78947C53.7894 3.78947 68.2105 18.2106 68.2105 36C68.2105 43.5091 65.641 50.4181 61.3332 55.8956C54.8303 49.4549 45.8792 45.4737 36.0003 45.4737C26.1212 45.4737 17.1699 49.455 10.667 55.8959C6.3591 50.4183 3.78947 43.5092 3.78947 36ZM62.8095 60.0266C56.2184 67.3761 46.6492 72 36 72C16.1178 72 0 55.8823 0 36C0 16.1178 16.1178 0 36 0C55.8823 0 72 16.1178 72 36C72 45.206 68.5445 53.6049 62.8597 59.9705C62.8434 59.9894 62.8266 60.0081 62.8095 60.0266Z" fill="#999999"/>
</svg>
