<svg width="16" height="16" viewBox="0 0 16 16" fill="none" xmlns="http://www.w3.org/2000/svg">
<g clip-path="url(#clip0_925_6045)">
<path d="M1.94733 7.83413C1.85572 7.28949 1.33994 6.92224 0.795311 7.01385C0.250676 7.10546 -0.116574 7.62124 -0.0249658 8.16587L1.94733 7.83413ZM15.3975 8.19785C15.5068 7.65648 15.1565 7.12904 14.6151 7.01977C14.0737 6.9105 13.5463 7.26078 13.437 7.80215L15.3975 8.19785ZM7.22419 13.3706C7.50221 12.8934 7.34073 12.2811 6.86353 12.0031C6.38632 11.7251 5.77409 11.8866 5.49608 12.3638L7.22419 13.3706ZM4.25826 14.4885C3.98024 14.9657 4.14172 15.5779 4.61893 15.8559C5.09613 16.1339 5.70836 15.9725 5.98638 15.4953L4.25826 14.4885ZM3.40066 11.4076C3.70345 10.9457 3.57448 10.3259 3.1126 10.0231C2.65072 9.72027 2.03083 9.84924 1.72803 10.3111L3.40066 11.4076ZM0.45862 12.2475C0.155829 12.7094 0.284798 13.3293 0.746681 13.6321C1.20856 13.9349 1.82846 13.8059 2.13125 13.344L0.45862 12.2475ZM9.93247 12.3322C9.65213 11.8564 9.03912 11.6979 8.56327 11.9783C8.08743 12.2586 7.92894 12.8716 8.20928 13.3474L9.93247 12.3322ZM9.47713 15.4995C9.75747 15.9753 10.3705 16.1338 10.8463 15.8535C11.3222 15.5731 11.4807 14.9601 11.2003 14.4843L9.47713 15.4995ZM13.5704 10.2081C13.2657 9.74755 12.6453 9.62122 12.1847 9.92598C11.7241 10.2307 11.5977 10.8512 11.9025 11.3118L13.5704 10.2081ZM13.2495 13.3476C13.5543 13.8082 14.1747 13.9345 14.6353 13.6297C15.0959 13.325 15.2222 12.7046 14.9175 12.244L13.2495 13.3476ZM-0.0249658 8.16587C0.237117 9.72402 1.25574 11.1786 2.60858 12.2277C3.97297 13.2858 5.7614 14 7.68922 14V12C6.25302 12 4.88769 11.4642 3.83419 10.6473C2.76914 9.82135 2.10575 8.77598 1.94733 7.83413L-0.0249658 8.16587ZM13.437 7.80215C13.2874 8.54344 12.6229 9.60767 11.5237 10.5074C10.4449 11.3904 9.08461 12 7.68922 12V14C9.65786 14 11.4513 13.1512 12.7905 12.0551C14.1091 10.9757 15.1266 9.53989 15.3975 8.19785L13.437 7.80215ZM5.49608 12.3638L4.25826 14.4885L5.98638 15.4953L7.22419 13.3706L5.49608 12.3638ZM1.72803 10.3111L0.45862 12.2475L2.13125 13.344L3.40066 11.4076L1.72803 10.3111ZM8.20928 13.3474L9.47713 15.4995L11.2003 14.4843L9.93247 12.3322L8.20928 13.3474ZM11.9025 11.3118L13.2495 13.3476L14.9175 12.244L13.5704 10.2081L11.9025 11.3118Z" fill="#585858"/>
</g>
<defs>
<clipPath id="clip0_925_6045">
<rect width="15.3784" height="16" fill="white"/>
</clipPath>
</defs>
</svg>
