<svg width="16" height="3" viewBox="0 0 16 3" fill="none" xmlns="http://www.w3.org/2000/svg">
<path d="M1.23389 0.0277367C0.696923 -0.101437 0.15691 0.229145 0.0277367 0.766111C-0.101437 1.30308 0.229145 1.84309 0.766111 1.97226L1.23389 0.0277367ZM15.2339 1.97226C15.7709 1.84309 16.1014 1.30308 15.9723 0.766111C15.8431 0.229145 15.3031 -0.101437 14.7661 0.0277367L15.2339 1.97226ZM1 1C0.766111 1.97226 0.766201 1.97228 0.766306 1.97231C0.766363 1.97232 0.766484 1.97235 0.766597 1.97238C0.766822 1.97243 0.767111 1.9725 0.767463 1.97259C0.768167 1.97276 0.769123 1.97299 0.770329 1.97327C0.77274 1.97385 0.77615 1.97467 0.780537 1.97571C0.789311 1.9778 0.801997 1.9808 0.818426 1.98467C0.851284 1.9924 0.899128 2.00356 0.960619 2.01766C1.08358 2.04586 1.26124 2.08586 1.48286 2.13372C1.92576 2.22936 2.54605 2.35679 3.2574 2.48431C4.66495 2.73663 6.48637 3 8 3V1C6.67057 1 4.992 0.763373 3.6103 0.51569C2.92704 0.393208 2.3304 0.270639 1.90503 0.178781C1.69251 0.13289 1.5232 0.0947627 1.40772 0.0682768C1.35 0.0550365 1.30575 0.0447133 1.27633 0.0377928C1.26162 0.0343328 1.25062 0.0317242 1.24349 0.0300277C1.23992 0.0291795 1.23733 0.0285594 1.23572 0.0281751C1.23492 0.0279828 1.23436 0.0278496 1.23405 0.0277762C1.2339 0.0277395 1.23381 0.0277178 1.23378 0.0277112C1.23377 0.0277079 1.2338 0.0277143 1.23379 0.0277126C1.23383 0.0277228 1.23389 0.0277367 1 1ZM8 3C9.51363 3 11.3351 2.73663 12.7426 2.48431C13.454 2.35679 14.0742 2.22936 14.5171 2.13372C14.7388 2.08586 14.9164 2.04586 15.0394 2.01766C15.1009 2.00356 15.1487 1.9924 15.1816 1.98467C15.198 1.9808 15.2107 1.9778 15.2195 1.97571C15.2239 1.97467 15.2273 1.97385 15.2297 1.97327C15.2309 1.97299 15.2318 1.97276 15.2325 1.97259C15.2329 1.9725 15.2332 1.97243 15.2334 1.97238C15.2335 1.97235 15.2336 1.97232 15.2337 1.97231C15.2338 1.97228 15.2339 1.97226 15 1C14.7661 0.0277367 14.7662 0.0277228 14.7662 0.0277126C14.7662 0.0277143 14.7662 0.0277079 14.7662 0.0277112C14.7662 0.0277178 14.7661 0.0277395 14.7659 0.0277762C14.7656 0.0278496 14.7651 0.0279828 14.7643 0.0281751C14.7627 0.0285594 14.7601 0.0291795 14.7565 0.0300277C14.7494 0.0317242 14.7384 0.0343328 14.7237 0.0377928C14.6942 0.0447133 14.65 0.0550365 14.5923 0.0682768C14.4768 0.0947627 14.3075 0.13289 14.095 0.178781C13.6696 0.270639 13.073 0.393208 12.3897 0.51569C11.008 0.763373 9.32943 1 8 1V3Z" fill="#FFB340"/>
</svg>
