<svg width="24" height="24" viewBox="0 0 24 24" fill="none" xmlns="http://www.w3.org/2000/svg">
<path fill-rule="evenodd" clip-rule="evenodd" d="M14.95 8H16.5C17.3284 8 18 8.67157 18 9.5C18 10.1531 17.5826 10.7087 17 10.9146V16C17 17.1046 16.1046 18 15 18H10C8.89543 18 8 17.1046 8 16V10.9146C7.4174 10.7087 7 10.1531 7 9.5C7 8.67157 7.67157 8 8.5 8H10.05C10.2816 6.85888 11.2905 6 12.5 6C13.7095 6 14.7184 6.85888 14.95 8ZM11.0854 8H13.9146C13.7087 7.4174 13.1531 7 12.5 7C11.8469 7 11.2913 7.4174 11.0854 8ZM10 9H8.5C8.22386 9 8 9.22386 8 9.5C8 9.77614 8.22386 10 8.5 10H16.5C16.7761 10 17 9.77614 17 9.5C17 9.22386 16.7761 9 16.5 9H15H10ZM9 16V11H16V16C16 16.5523 15.5523 17 15 17H10C9.44772 17 9 16.5523 9 16ZM11 12.5C11 12.2239 10.7761 12 10.5 12C10.2239 12 10 12.2239 10 12.5V15.5C10 15.7761 10.2239 16 10.5 16C10.7761 16 11 15.7761 11 15.5V12.5ZM12.5 12C12.7761 12 13 12.2239 13 12.5V15.5C13 15.7761 12.7761 16 12.5 16C12.2239 16 12 15.7761 12 15.5V12.5C12 12.2239 12.2239 12 12.5 12ZM15 12.5C15 12.2239 14.7761 12 14.5 12C14.2239 12 14 12.2239 14 12.5V15.5C14 15.7761 14.2239 16 14.5 16C14.7761 16 15 15.7761 15 15.5V12.5Z" fill="#999999"/>
</svg>
