<svg width="16" height="16" viewBox="0 0 16 16" fill="none" xmlns="http://www.w3.org/2000/svg">
<path d="M15.5 7.5C15.5 11.366 12.366 14.5 8.5 14.5C4.63401 14.5 1.5 11.366 1.5 7.5C1.5 3.63401 4.63401 0.5 8.5 0.5C12.366 0.5 15.5 3.63401 15.5 7.5Z" stroke="#999999"/>
<path d="M11.5 6V5.9C11.5 5.1268 10.8732 4.5 10.1 4.5H7C6.17157 4.5 5.5 5.17157 5.5 6V6C5.5 6.82843 6.17157 7.5 7 7.5H8.5" stroke="#FFB340" stroke-linecap="round"/>
<path d="M8.5 3.5V4.5" stroke="#FFB340" stroke-linecap="round"/>
<path d="M8.5 10.5V11.5" stroke="#FFB340" stroke-linecap="round"/>
<path d="M5.5 9V9.1C5.5 9.8732 6.1268 10.5 6.9 10.5H10C10.8284 10.5 11.5 9.82843 11.5 9V9C11.5 8.17157 10.8284 7.5 10 7.5H8.5" stroke="#FFB340" stroke-linecap="round"/>
</svg>
