<svg width="72" height="72" viewBox="0 0 72 72" fill="none" xmlns="http://www.w3.org/2000/svg">
<path fill-rule="evenodd" clip-rule="evenodd" d="M9 6H33C34.6569 6 36 7.34315 36 9V16H39V9C39 5.68629 36.3137 3 33 3H9C5.68629 3 3 5.68629 3 9V63C3 66.3137 5.68629 69 9 69H33C36.3137 69 39 66.3137 39 63V38H36V63C36 64.6569 34.6569 66 33 66H9C7.34315 66 6 64.6569 6 63V9C6 7.34315 7.34314 6 9 6Z" fill="#999999"/>
<path d="M15 14.5H67C67.2761 14.5 67.5 14.7239 67.5 15V39C67.5 39.2761 67.2761 39.5 67 39.5H33.4142C32.7512 39.5 32.1153 39.7634 31.6464 40.2322L24.3536 47.5251C24.0386 47.8401 23.5 47.617 23.5 47.1716V41.01C23.5 40.176 22.8239 39.5 21.99 39.5H15C14.7239 39.5 14.5 39.2761 14.5 39V15C14.5 14.7239 14.7239 14.5 15 14.5Z" stroke="#999999" stroke-width="3"/>
<rect x="6" y="56" width="30" height="3" fill="#999999"/>
<rect x="16" y="61" width="10" height="3" rx="1.5" fill="#999999"/>
<rect x="16" y="8" width="10" height="3" rx="1.5" fill="#999999"/>
<rect x="25.0005" y="20" width="3" height="13" rx="1.5" fill="#FFB340"/>
<rect x="20.1216" y="24.5488" width="3" height="13" rx="1.5" transform="rotate(-60 20.1216 24.5488)" fill="#FFB340"/>
<rect x="31.3794" y="21.9512" width="3" height="13" rx="1.5" transform="rotate(60 31.3794 21.9512)" fill="#FFB340"/>
<rect x="39.8794" y="20" width="3" height="13" rx="1.5" fill="#FFB340"/>
<rect x="35.0005" y="24.5488" width="3" height="13" rx="1.5" transform="rotate(-60 35.0005 24.5488)" fill="#FFB340"/>
<rect x="46.2583" y="21.9512" width="3" height="13" rx="1.5" transform="rotate(60 46.2583 21.9512)" fill="#FFB340"/>
<rect x="54.7583" y="20" width="3" height="13" rx="1.5" fill="#FFB340"/>
<rect x="49.8794" y="24.5488" width="3" height="13" rx="1.5" transform="rotate(-60 49.8794 24.5488)" fill="#FFB340"/>
<rect x="61.1372" y="21.9512" width="3" height="13" rx="1.5" transform="rotate(60 61.1372 21.9512)" fill="#FFB340"/>
</svg>
