<svg width="24" height="24" viewBox="0 0 24 24" fill="none" xmlns="http://www.w3.org/2000/svg">
<path fill-rule="evenodd" clip-rule="evenodd" d="M9.38268 4.07615C9.75636 4.23093 10 4.59557 10 5.00003V19C10 19.5523 9.55228 20 9 20C8.44772 20 8 19.5523 8 19V7.41424L5.70711 9.70714C5.31658 10.0977 4.68342 10.0977 4.29289 9.70714C3.90237 9.31661 3.90237 8.68345 4.29289 8.29292L8.29289 4.29292C8.57889 4.00692 9.00901 3.92137 9.38268 4.07615Z" fill="#FFB340"/>
<path fill-rule="evenodd" clip-rule="evenodd" d="M14.6173 19.9239C14.2436 19.7691 14 19.4044 14 19V4.99997C14 4.44769 14.4477 3.99997 15 3.99997C15.5523 3.99997 16 4.44769 16 4.99997V16.5858L18.2929 14.2929C18.6834 13.9023 19.3166 13.9023 19.7071 14.2929C20.0976 14.6834 20.0976 15.3166 19.7071 15.7071L15.7071 19.7071C15.4211 19.9931 14.991 20.0786 14.6173 19.9239Z" fill="#999999"/>
</svg>
