<svg width="72" height="72" viewBox="0 0 72 72" fill="none" xmlns="http://www.w3.org/2000/svg">
<g filter="url(#filter0_d_361_2924)">
<rect x="12" y="6" width="48" height="48" rx="24" fill="url(#paint0_linear_361_2924)"/>
<rect x="13" y="7" width="46" height="46" rx="23" stroke="white" stroke-opacity="0.3" stroke-width="2"/>
</g>
<g filter="url(#filter1_d_361_2924)">
<path d="M38.0819 34.7228L36 33.63L33.9414 34.7106C33.9579 34.9675 33.9247 35.2259 33.8429 35.4713L33.2279 37.3163C33.0918 37.7246 32.7097 38 32.2792 38H30.2667C29.7333 38 29.2 38.4 29.0667 38.9334L28.4621 40.6715C28.2361 41.3214 28.7186 42 29.4066 42H42.5934C43.2814 42 43.7639 41.3214 43.5379 40.6715L42.9333 38.9334C42.8 38.4 42.2667 38 41.7333 38H39.7208C39.2903 38 38.9082 37.7246 38.7721 37.3163L38.2356 35.7069C38.1296 35.3887 38.078 35.0561 38.0819 34.7228Z" fill="white"/>
<path d="M35.4098 18.1336C35.7831 17.9556 36.2169 17.9556 36.5902 18.1336C36.9231 18.2923 37.1002 18.5647 37.1785 18.6926C37.2603 18.8261 37.3426 18.9929 37.416 19.1418L38.959 22.2679L42.4107 22.7724C42.5749 22.7963 42.7589 22.8232 42.9112 22.8598C43.0569 22.8948 43.3706 22.9794 43.6242 23.247C43.9086 23.5472 44.0423 23.9597 43.9882 24.3697C43.9399 24.7352 43.7355 24.9877 43.6381 25.1017C43.5363 25.2206 43.403 25.3503 43.2841 25.4661L40.7877 27.8975L41.3768 31.3318C41.4049 31.4955 41.4364 31.6789 41.4488 31.835C41.4606 31.9845 41.4774 32.3091 41.3014 32.6332C41.104 32.9967 40.753 33.2516 40.3463 33.327C39.9836 33.3942 39.6802 33.2779 39.5417 33.2204C39.397 33.1604 39.2324 33.0737 39.0854 32.9964L36 31.3738L32.9146 32.9964C32.7677 33.0737 32.603 33.1604 32.4584 33.2204C32.3199 33.2779 32.0164 33.3942 31.6537 33.327C31.247 33.2516 30.8961 32.9967 30.6986 32.6332C30.5226 32.3091 30.5394 31.9845 30.5512 31.835C30.5636 31.6789 30.5951 31.4955 30.6232 31.3318L31.2123 27.8975L28.7159 25.4661C28.597 25.3503 28.4637 25.2206 28.362 25.1017C28.2645 24.9877 28.0601 24.7352 28.0118 24.3697C27.9577 23.9597 28.0914 23.5472 28.3758 23.247C28.6294 22.9794 28.9431 22.8948 29.0889 22.8598C29.2411 22.8232 29.4251 22.7963 29.5893 22.7724L33.041 22.2679L34.584 19.1418C34.6574 18.993 34.7397 18.8261 34.8215 18.6926C34.8998 18.5647 35.0769 18.2923 35.4098 18.1336Z" fill="white"/>
</g>
<defs>
<filter id="filter0_d_361_2924" x="0" y="0" width="72" height="72" filterUnits="userSpaceOnUse" color-interpolation-filters="sRGB">
<feFlood flood-opacity="0" result="BackgroundImageFix"/>
<feColorMatrix in="SourceAlpha" type="matrix" values="0 0 0 0 0 0 0 0 0 0 0 0 0 0 0 0 0 0 127 0" result="hardAlpha"/>
<feOffset dy="6"/>
<feGaussianBlur stdDeviation="6"/>
<feComposite in2="hardAlpha" operator="out"/>
<feColorMatrix type="matrix" values="0 0 0 0 0.384314 0 0 0 0 0.713726 0 0 0 0 0.333333 0 0 0 0.36 0"/>
<feBlend mode="normal" in2="BackgroundImageFix" result="effect1_dropShadow_361_2924"/>
<feBlend mode="normal" in="SourceGraphic" in2="effect1_dropShadow_361_2924" result="shape"/>
</filter>
<filter id="filter1_d_361_2924" x="27" y="18.0001" width="18" height="26" filterUnits="userSpaceOnUse" color-interpolation-filters="sRGB">
<feFlood flood-opacity="0" result="BackgroundImageFix"/>
<feColorMatrix in="SourceAlpha" type="matrix" values="0 0 0 0 0 0 0 0 0 0 0 0 0 0 0 0 0 0 127 0" result="hardAlpha"/>
<feOffset dy="1"/>
<feGaussianBlur stdDeviation="0.5"/>
<feComposite in2="hardAlpha" operator="out"/>
<feColorMatrix type="matrix" values="0 0 0 0 0 0 0 0 0 0 0 0 0 0 0 0 0 0 0.09 0"/>
<feBlend mode="normal" in2="BackgroundImageFix" result="effect1_dropShadow_361_2924"/>
<feBlend mode="normal" in="SourceGraphic" in2="effect1_dropShadow_361_2924" result="shape"/>
</filter>
<linearGradient id="paint0_linear_361_2924" x1="36" y1="6" x2="36" y2="54" gradientUnits="userSpaceOnUse">
<stop stop-color="#90DF75"/>
<stop offset="1" stop-color="#62B655"/>
</linearGradient>
</defs>
</svg>
