<svg width="24" height="24" viewBox="0 0 24 24" fill="none" xmlns="http://www.w3.org/2000/svg">
<path fill-rule="evenodd" clip-rule="evenodd" d="M19 12C19 15.866 15.866 19 12 19C8.13401 19 5 15.866 5 12C5 8.13401 8.13401 5 12 5C15.866 5 19 8.13401 19 12ZM17.6177 19.0319C16.078 20.2635 14.125 21 12 21C7.02944 21 3 16.9706 3 12C3 7.02944 7.02944 3 12 3C16.9706 3 21 7.02944 21 12C21 14.125 20.2635 16.078 19.0319 17.6177L20.7072 19.2929C21.0977 19.6834 21.0977 20.3166 20.7072 20.7071C20.3167 21.0976 19.6835 21.0976 19.293 20.7071L17.6177 19.0319Z" fill="#F1F1F1"/>
</svg>
