<svg width="30" height="30" viewBox="0 0 30 30" fill="none" xmlns="http://www.w3.org/2000/svg">
<path d="M8.87244 12.9697L2.32093 25.313L8.27028 24.7634L11.1498 29.999L17.7013 17.6557L8.87244 12.9697Z" fill="#FFBD38"/>
<path d="M9.62279 26.4048C9.80663 26.0099 9.61435 25.5381 9.22979 25.3336L8.85274 25.1329C8.47569 24.9181 8.33219 24.4407 8.5376 24.0543C8.74582 23.6613 9.23542 23.5112 9.62842 23.7195L10.6939 24.285C11.0231 24.4595 11.4358 24.3329 11.6056 24.0018L11.6319 23.9511C11.827 23.6388 11.7116 23.2261 11.3871 23.0545L8.19994 21.3633C7.81163 21.157 7.62123 20.6871 7.80225 20.2913C8.00203 19.8702 8.50664 19.7041 8.91277 19.9199L11.8692 21.489C12.1984 21.6635 12.6111 21.5369 12.7855 21.2077L12.8024 21.1645L12.8071 21.1551C12.9956 20.81 12.8634 20.3766 12.5154 20.1919L10.8571 19.3121C10.4688 19.1057 10.2784 18.6358 10.4622 18.2353C10.6602 17.8189 11.1666 17.6482 11.5728 17.8639L13.4046 18.8365C13.7469 19.0185 14.1559 18.8666 14.3331 18.5214C14.3359 18.5167 14.3359 18.5167 14.3378 18.512C14.3406 18.5073 14.3406 18.5073 14.3425 18.5026C14.5292 18.1622 14.426 17.7382 14.0827 17.5572L12.1065 16.5086C11.7228 16.305 11.5324 15.8351 11.7135 15.4393C11.9132 15.0182 12.4179 14.8522 12.824 15.0679L17.6994 17.6557L11.1479 29.999L9.34235 26.7171C9.45865 26.6383 9.55995 26.5408 9.62279 26.4048Z" fill="#FBAF16"/>
<path d="M21.1276 12.9697L27.6791 25.313L21.7297 24.7634L18.8502 29.999L12.2987 17.6557L21.1276 12.9697Z" fill="#FFBD38"/>
<path d="M20.3772 26.4048C20.1934 26.0099 20.3856 25.5382 20.7702 25.3337L21.1473 25.133C21.5243 24.9182 21.6678 24.4408 21.4624 24.0543C21.2542 23.6613 20.7646 23.5113 20.3716 23.7195L19.3061 24.2851C18.9769 24.4595 18.5642 24.3329 18.3944 24.0018L18.3681 23.9512C18.173 23.6388 18.2884 23.2261 18.6129 23.0545L21.801 21.3624C22.1893 21.1561 22.3797 20.6862 22.1987 20.2904C21.9989 19.8693 21.4943 19.7032 21.0882 19.919L18.1318 21.4881C17.8026 21.6626 17.3899 21.536 17.2154 21.2068L17.1985 21.1636L17.1938 21.1542C17.0053 20.8091 17.1376 20.3757 17.4855 20.191L19.1438 19.3112C19.5321 19.1048 19.7225 18.6349 19.5387 18.2344C19.3408 17.818 18.8343 17.6473 18.4282 17.863L16.5945 18.8375C16.2521 19.0195 15.8432 18.8675 15.6659 18.5224C15.6631 18.5177 15.6631 18.5177 15.6612 18.513C15.6584 18.5083 15.6584 18.5083 15.6566 18.5036C15.4699 18.1631 15.5731 17.7392 15.9164 17.5582L17.8926 16.5095C18.2762 16.306 18.4666 15.8361 18.2856 15.4403C18.0858 15.0192 17.5812 14.8531 17.1751 15.0689L12.2997 17.6567L18.8512 29.9999L20.6567 26.7181C20.5413 26.6384 20.44 26.5408 20.3772 26.4048Z" fill="#FBAF16"/>
<path d="M15 22C21.0751 22 26 17.0751 26 11C26 4.92487 21.0751 0 15 0C8.92487 0 4 4.92487 4 11C4 17.0751 8.92487 22 15 22Z" fill="#FFC757"/>
<mask id="mask0_624_4637" style="mask-type:alpha" maskUnits="userSpaceOnUse" x="4" y="0" width="22" height="22">
<path d="M15 22C21.0751 22 26 17.0751 26 11C26 4.92487 21.0751 0 15 0C8.92487 0 4 4.92487 4 11C4 17.0751 8.92487 22 15 22Z" fill="#F2641C"/>
</mask>
<g mask="url(#mask0_624_4637)">
<path d="M15.7921 9.76083H8.6355C8.07911 9.76083 7.62238 9.32353 7.62238 8.7908L7.63013 8.72409V8.70927C7.62239 8.14689 8.10136 7.68736 8.68968 7.68736H13.6498C14.3068 7.68736 14.8874 7.22134 14.9261 6.59133C14.957 5.9326 14.4084 5.37671 13.7194 5.37671H8.46519C7.88558 5.37671 7.45208 4.91069 7.45982 4.3548C7.45982 4.34739 7.45982 4.34738 7.45982 4.33997C7.45982 4.33256 7.45982 4.33256 7.45982 4.32515C7.45208 3.77019 7.88461 3.30324 8.46519 3.30324H13.9633C14.6126 3.30324 15.1931 2.83722 15.2319 2.21462C15.2628 1.54848 14.7142 1 14.0252 1H9.99889C5.89322 2.62042 3 6.48571 3 11.0014C3 15.5171 5.89322 19.3814 9.99986 21H15.1119C15.7611 21 16.3417 20.534 16.3804 19.9114C16.4114 19.2452 15.8628 18.6977 15.1738 18.6977L9.35832 18.6968C8.67227 18.6968 8.11975 18.1474 8.15652 17.4821C8.19039 16.8595 8.77484 16.3917 9.42605 16.3917H11.6806C12.329 16.3741 12.8524 15.8654 12.8524 15.2401C12.8524 14.6036 12.3115 14.0847 11.6458 14.0847H8.22812C7.67173 14.0847 7.21501 13.6484 7.22275 13.1147V13.0332C7.18405 12.5079 7.62529 12.0631 8.17394 12.0631H15.7224C16.3795 12.0631 16.96 11.5971 16.9988 10.9745C17.0297 10.3093 16.4801 9.76083 15.7921 9.76083Z" fill="#FFD277"/>
</g>
<path d="M15.0005 19C10.5887 19 7 15.4103 7 10.9995C7 6.58874 10.5887 3 15.0005 3C19.4122 3 23.001 6.5897 23.001 11.0005C23.001 15.4113 19.4122 19 15.0005 19Z" fill="white"/>
</svg>
