<svg width="16" height="16" viewBox="0 0 16 16" fill="none" xmlns="http://www.w3.org/2000/svg">
<path d="M1.5 8C1.5 7.10083 2.21958 5.98085 3.48386 5.05043C4.72447 4.13743 6.37278 3.5 8 3.5C9.62722 3.5 11.2755 4.13743 12.5161 5.05043C13.7804 5.98085 14.5 7.10083 14.5 8C14.5 8.89916 13.7804 10.0191 12.5161 10.9496C11.2755 11.8626 9.62722 12.5 8 12.5C6.37278 12.5 4.72447 11.8626 3.48386 10.9496C2.21958 10.0191 1.5 8.89916 1.5 8Z" stroke="#999999"/>
<path d="M9.5 8C9.5 8.82843 8.82843 9.5 8 9.5C7.17157 9.5 6.5 8.82843 6.5 8C6.5 7.17157 7.17157 6.5 8 6.5C8.82843 6.5 9.5 7.17157 9.5 8Z" stroke="#FFB340"/>
</svg>
