<svg width="96" height="96" viewBox="0 0 96 96" fill="none" xmlns="http://www.w3.org/2000/svg">
<circle opacity="0.15" cx="48" cy="48" r="34" fill="#999999"/>
<path fill-rule="evenodd" clip-rule="evenodd" d="M80 48C80 65.6731 65.6731 80 48 80C30.3269 80 16 65.6731 16 48C16 30.3269 30.3269 16 48 16C65.6731 16 80 30.3269 80 48ZM72.0026 74.831C65.6332 80.5328 57.2215 84 48 84C28.1177 84 12 67.8823 12 48C12 28.1177 28.1177 12 48 12C67.8823 12 84 28.1177 84 48C84 57.2215 80.5328 65.6332 74.831 72.0026L83.4142 80.5858C84.1953 81.3668 84.1953 82.6332 83.4142 83.4142C82.6332 84.1953 81.3668 84.1953 80.5858 83.4142L72.0026 74.831Z" fill="#999999"/>
<circle cx="48" cy="48" r="12" fill="#FFB340"/>
<path fill-rule="evenodd" clip-rule="evenodd" d="M44.4644 43.0503C44.0739 42.6597 43.4407 42.6597 43.0502 43.0503C42.6597 43.4408 42.6597 44.0739 43.0502 44.4645L46.5857 48L43.0502 51.5355C42.6597 51.9261 42.6597 52.5592 43.0502 52.9497C43.4407 53.3403 44.0739 53.3403 44.4644 52.9497L48 49.4142L51.5355 52.9497C51.926 53.3403 52.5592 53.3403 52.9497 52.9497C53.3402 52.5592 53.3402 51.9261 52.9497 51.5355L49.4142 48L52.9497 44.4645C53.3402 44.0739 53.3402 43.4408 52.9497 43.0503C52.5592 42.6597 51.926 42.6597 51.5355 43.0503L48 46.5858L44.4644 43.0503Z" fill="white"/>
</svg>
