<svg width="24" height="24" viewBox="0 0 24 24" fill="none" xmlns="http://www.w3.org/2000/svg">
<path fill-rule="evenodd" clip-rule="evenodd" d="M7 4H17C18.1046 4 19 4.89543 19 6V11H5V6C5 4.89543 5.89543 4 7 4ZM5 13V18C5 19.1046 5.89543 20 7 20H17C18.1046 20 19 19.1046 19 18V13H5ZM3 6C3 3.79086 4.79086 2 7 2H17C19.2091 2 21 3.79086 21 6V18C21 20.2091 19.2091 22 17 22H7C4.79086 22 3 20.2091 3 18V6ZM10 7C10 6.44772 10.4477 6 11 6H13C13.5523 6 14 6.44772 14 7C14 7.55228 13.5523 8 13 8H11C10.4477 8 10 7.55228 10 7ZM11 15C10.4477 15 10 15.4477 10 16C10 16.5523 10.4477 17 11 17H13C13.5523 17 14 16.5523 14 16C14 15.4477 13.5523 15 13 15H11Z" fill="#FFB340"/>
</svg>
