<svg width="24" height="24" viewBox="0 0 24 24" fill="none" xmlns="http://www.w3.org/2000/svg">
<path fill-rule="evenodd" clip-rule="evenodd" d="M16.1469 9.706C15.9393 9.70618 15.7326 9.64178 15.5582 9.51505C15.2502 9.29132 15.096 8.91214 15.1603 8.53696L15.2524 8H15.2525L15.1604 8.53696C15.096 8.91214 15.2503 9.29132 15.5582 9.51505C15.7327 9.64177 15.9393 9.70617 16.1469 9.706ZM14.4993 6.08934L14.3022 5.89736C14.0296 5.63183 13.9313 5.23457 14.0487 4.87257C14.1661 4.51056 14.4788 4.24655 14.8553 4.19151L15.0538 4.1625C15.0538 4.1625 15.0538 4.1625 15.0538 4.1625L14.8553 4.19151C14.4787 4.24655 14.166 4.51056 14.0487 4.87257C13.9313 5.23457 14.0296 5.63183 14.3022 5.89736L14.4993 6.08932C14.4993 6.08933 14.4993 6.08933 14.4993 6.08934ZM18 13V11.1206L17.9999 11.1205L17.5423 11.3612C17.0584 11.6157 16.5255 11.7281 16 11.7024V12H14V10.8026C13.3351 10.1222 13.0249 9.1562 13.1891 8.19887L13.2763 7.6901L12.9067 7.33007C12.0889 6.53348 11.794 5.34172 12.1462 4.2557C12.1744 4.16852 12.2065 4.08322 12.2421 4H12.2415H12.2413H12.2H7.8H7.7587H7.75852C7.50953 4 7.27399 3.99999 7.0514 4.0013C7.03437 4.00044 7.01724 4 7 4C6.97793 4 6.95603 4.00072 6.93431 4.00212C6.48616 4.00585 6.09227 4.01608 5.74817 4.04419C5.18608 4.09012 4.66937 4.18868 4.18404 4.43598C3.43139 4.81947 2.81947 5.43139 2.43597 6.18404C2.18868 6.66937 2.09012 7.18608 2.04419 7.74818C2.01608 8.09227 2.00584 8.48616 2.00212 8.93431C2.00071 8.95603 2 8.97793 2 9C2 9.01724 2.00043 9.03438 2.0013 9.0514C1.99999 9.27367 2 9.50883 2 9.75741V9.75752V9.75873V9.8V13V16.2V16.2413V16.2425V16.2426C2 16.4912 1.99999 16.7263 2.0013 16.9486C2.00043 16.9656 2 16.9828 2 17C2 17.0221 2.00071 17.044 2.00212 17.0657C2.00584 17.5138 2.01608 17.9077 2.04419 18.2518C2.09012 18.8139 2.18868 19.3306 2.43597 19.816C2.81947 20.5686 3.43139 21.1805 4.18404 21.564C4.66937 21.8113 5.18608 21.9099 5.74817 21.9558C6.09227 21.9839 6.48615 21.9942 6.93431 21.9979C6.95603 21.9993 6.97793 22 7 22C7.01724 22 7.03437 21.9996 7.0514 21.9987C7.27397 22 7.50948 22 7.75844 22H7.75856H7.75867H7.8H12.2H12.2413H12.2414H12.2416C12.4905 22 12.726 22 12.9486 21.9987C12.9656 21.9996 12.9828 22 13 22C13.0221 22 13.044 21.9993 13.0657 21.9979C13.5138 21.9942 13.9077 21.9839 14.2518 21.9558C14.8139 21.9099 15.3306 21.8113 15.816 21.564C16.5686 21.1805 17.1805 20.5686 17.564 19.816C17.8113 19.3306 17.9099 18.8139 17.9558 18.2518C17.9839 17.9077 17.9942 17.5138 17.9979 17.0657C17.9993 17.044 18 17.0221 18 17C18 16.9828 17.9996 16.9656 17.9987 16.9486C18 16.726 18 16.4905 18 16.2415V16.2413V16.2V13ZM12 9V6H8V9V12H12V9ZM16 14V16H14V14H16ZM15.9691 18C15.9671 18.0302 15.9648 18.0599 15.9624 18.089C15.9266 18.5274 15.8617 18.7516 15.782 18.908C15.5903 19.2843 15.2843 19.5903 14.908 19.782C14.7516 19.8617 14.5274 19.9266 14.089 19.9624C14.0599 19.9648 14.0302 19.9671 14 19.9691V18H15.9691ZM12 20V17V14H8V17V20H12ZM6 19.9691C5.96977 19.9671 5.94013 19.9648 5.91104 19.9624C5.47262 19.9266 5.24842 19.8617 5.09202 19.782C4.71569 19.5903 4.40973 19.2843 4.21799 18.908C4.1383 18.7516 4.07337 18.5274 4.03755 18.089C4.03517 18.0599 4.03295 18.0302 4.03086 18H6V19.9691ZM6 16H4V14H6V16ZM6 12H4V10H6V12ZM6 8H4.03086C4.03295 7.96977 4.03517 7.94013 4.03755 7.91104C4.07337 7.47262 4.1383 7.24842 4.21799 7.09202C4.40973 6.7157 4.71569 6.40974 5.09202 6.21799C5.24842 6.1383 5.47262 6.07337 5.91104 6.03755C5.94013 6.03518 5.96977 6.03295 6 6.03086V8Z" fill="#F1F1F1"/>
<path d="M18 3L17.073 4.878L15 5.181L16.5 6.642L16.146 8.706L18 7.731L19.854 8.706L19.5 6.642L21 5.181L18.927 4.878L18 3Z" stroke="#F1F1F1" stroke-width="2" stroke-linecap="round" stroke-linejoin="round"/>
</svg>
