<svg width="96" height="96" viewBox="0 0 96 96" fill="none" xmlns="http://www.w3.org/2000/svg">
<path opacity="0.15" d="M21 30.32C21 24.6075 21 21.7512 22.1036 19.5693C23.0743 17.65 24.6232 16.0896 26.5283 15.1117C28.6942 14 31.5295 14 37.2 14H48.0397C50.5162 14 51.7545 14 52.9197 14.2818C53.9528 14.5317 54.9405 14.9438 55.8464 15.5031C56.8682 16.1339 57.7437 17.0159 59.4949 18.78L70.2551 29.62C72.0063 31.3841 72.8818 32.2661 73.508 33.2955C74.0631 34.2081 74.4722 35.2031 74.7202 36.2438C75 37.4177 75 38.6651 75 41.16V65.68C75 71.3925 75 74.2488 73.8964 76.4307C72.9257 78.35 71.3768 79.9104 69.4717 80.8883C67.3058 82 64.4705 82 58.8 82H37.2C31.5295 82 28.6942 82 26.5283 80.8883C24.6232 79.9104 23.0743 78.35 22.1036 76.4307C21 74.2488 21 71.3925 21 65.68V30.32Z" fill="#999999" stroke="#FFB340" stroke-width="2" stroke-linecap="round" stroke-linejoin="round"/>
<path d="M21 30.32C21 24.6075 21 21.7512 22.1036 19.5693C23.0743 17.65 24.6232 16.0896 26.5283 15.1117C28.6942 14 31.5295 14 37.2 14H48.0397C50.5162 14 51.7545 14 52.9197 14.2818C53.9528 14.5317 54.9405 14.9438 55.8464 15.5031C56.8682 16.1339 57.7437 17.0159 59.4949 18.78L70.2551 29.62C72.0063 31.3841 72.8818 32.2661 73.508 33.2955C74.0631 34.2081 74.4722 35.2031 74.7202 36.2438C75 37.4177 75 38.6651 75 41.16V65.68C75 71.3925 75 74.2488 73.8964 76.4307C72.9257 78.35 71.3768 79.9104 69.4717 80.8883C67.3058 82 64.4705 82 58.8 82H37.2C31.5295 82 28.6942 82 26.5283 80.8883C24.6232 79.9104 23.0743 78.35 22.1036 76.4307C21 74.2488 21 71.3925 21 65.68V30.32Z" stroke="#999999" stroke-width="2" stroke-linecap="round" stroke-linejoin="round"/>
<path fill-rule="evenodd" clip-rule="evenodd" d="M48.811 38.1765C48.2953 37.9412 47.7046 37.9412 47.1889 38.1765C46.7917 38.3578 46.5368 38.675 46.3622 38.9281C46.1892 39.1787 46.0041 39.5069 45.8004 39.8681L37.7456 54.1474L37.7456 54.1475C37.5409 54.5103 37.3552 54.8394 37.2294 55.1185C37.1013 55.4028 36.9647 55.7801 37.0083 56.2089C37.0647 56.7644 37.3489 57.2769 37.8012 57.6144C38.1537 57.8775 38.5546 57.9469 38.8624 57.9758C39.1637 58.0042 39.5367 58.0042 39.9435 58.0041H56.0565C56.4632 58.0042 56.8363 58.0042 57.1376 57.9758C57.4454 57.9469 57.8462 57.8775 58.1988 57.6144C58.651 57.2769 58.9352 56.7644 58.9917 56.2089C59.0352 55.7801 58.8987 55.4028 58.7705 55.1185C58.6448 54.8395 58.4592 54.5105 58.2546 54.1479L58.2546 54.1478L58.2544 54.1476L58.2544 54.1475L50.1995 39.8681C49.9958 39.5069 49.8107 39.1787 49.6378 38.9281C49.4631 38.675 49.2083 38.3578 48.811 38.1765ZM49 46C49 45.4477 48.5523 45 48 45C47.4477 45 47 45.4477 47 46V50C47 50.5523 47.4477 51 48 51C48.5523 51 49 50.5523 49 50V46ZM48 54C48.5523 54 49 53.5523 49 53C49 52.4477 48.5523 52 48 52C47.4477 52 47 52.4477 47 53C47 53.5523 47.4477 54 48 54Z" fill="#FFB340"/>
</svg>
