<svg width="24" height="24" viewBox="0 0 24 24" fill="none" xmlns="http://www.w3.org/2000/svg">
<path d="M6 3H18C19.6569 3 21 4.34315 21 6V18C21 19.6569 19.6569 21 18 21H6C4.34315 21 3 19.6569 3 18V6C3 4.34315 4.34315 3 6 3Z" stroke="#FFB340" stroke-width="2"/>
<path fill-rule="evenodd" clip-rule="evenodd" d="M9.52814 7.11833C9.8533 6.94431 10.2478 6.96338 10.5547 7.16795L16.5547 11.168C16.8329 11.3534 17 11.6656 17 12C17 12.3344 16.8329 12.6466 16.5547 12.8321L10.5547 16.8321C10.2478 17.0366 9.8533 17.0557 9.52814 16.8817C9.20298 16.7077 9 16.3688 9 16V8C9 7.63121 9.20298 7.29235 9.52814 7.11833ZM11 9.86852V14.1315L14.1972 12L11 9.86852Z" fill="#FFB340"/>
</svg>
