<svg width="16" height="16" viewBox="0 0 16 16" fill="none" xmlns="http://www.w3.org/2000/svg">
<path d="M9 8C9 8.55228 8.55228 9 8 9V11C9.65685 11 11 9.65685 11 8H9ZM8 9C7.44772 9 7 8.55228 7 8H5C5 9.65685 6.34315 11 8 11V9ZM7 8C7 7.44772 7.44772 7 8 7V5C6.34315 5 5 6.34315 5 8H7ZM8 7C8.55228 7 9 7.44772 9 8H11C11 6.34315 9.65685 5 8 5V7ZM2 8C2 7.33803 2.56416 6.34807 3.78022 5.45313C4.94893 4.59305 6.49557 4 8 4V2C6.00443 2 4.05107 2.77059 2.59478 3.84232C1.18584 4.8792 0 6.38924 0 8H2ZM0 8C0 9.61076 1.18584 11.1208 2.59478 12.1577C4.05107 13.2294 6.00443 14 8 14V12C6.49557 12 4.94893 11.407 3.78022 10.5469C2.56416 9.65193 2 8.66197 2 8H0ZM16 8C16 6.38924 14.8142 4.8792 13.4052 3.84232C11.9489 2.77059 9.99557 2 8 2V4C9.50443 4 11.0511 4.59305 12.2198 5.45313C13.4358 6.34807 14 7.33803 14 8H16ZM14 8C14 8.66197 13.4358 9.65193 12.2198 10.5469C11.0511 11.407 9.50443 12 8 12V14C9.99557 14 11.9489 13.2294 13.4052 12.1577C14.8142 11.1208 16 9.61076 16 8H14Z" fill="#585858"/>
</svg>
