<svg width="24" height="24" viewBox="0 0 24 24" fill="none" xmlns="http://www.w3.org/2000/svg">
<path fill-rule="evenodd" clip-rule="evenodd" d="M12.3542 6.86289C12.1588 7.05906 11.8412 7.05906 11.6458 6.86289L10.5831 5.79611C10.0321 5.24302 9.4567 5 8.2069 5C6.21525 5 4 6.86655 4 9.57692C4 13.0207 6.23227 15.8739 12 18.774C17.7677 15.8739 20 13.0207 20 9.57692C20 6.86655 17.7847 5 15.7931 5C14.5433 5 13.9679 5.24302 13.4169 5.79611L12.3542 6.86289ZM12 21C5.44828 17.8846 2 14.4231 2 9.57692C2 5.76923 5.10345 3 8.2069 3C9.79676 3 10.9429 3.3394 11.9696 4.35428C11.9797 4.36433 11.9899 4.37444 12 4.38462C12.0101 4.37444 12.0203 4.36433 12.0305 4.35428C13.0571 3.3394 14.2032 3 15.7931 3C18.8966 3 22 5.76923 22 9.57692C22 14.4231 18.5517 17.8846 12 21Z" fill="#F1F1F1"/>
</svg>
