<svg width="118" height="30" viewBox="0 0 118 30" fill="none" xmlns="http://www.w3.org/2000/svg">
<path fill-rule="evenodd" clip-rule="evenodd" d="M9.77118 5.99902H0.498169L8.16886 28.4997L8.68024 29.9998H10.3167L14.3736 19.4994L17.4419 28.4997L17.9533 29.9998H19.5897L23.6466 19.4994L28.8627 5.99902H26.1353L22.3682 15.7493L19.2999 6.74905L19.0442 5.99902H16.8623L13.0951 15.7493L9.77118 5.99902ZM33.2265 13.1992L36.4993 5.99902H39.2266L50.1361 29.9998H40.8631L39.2101 26.3633H29.9702L28.3172 29.9998H25.5899L33.2265 13.1992ZM34.5901 16.1993L38.2183 24.1814H30.9619L34.5901 16.1993ZM85.0462 5.99902L81.7734 13.1992L74.1368 29.9998H76.8642L78.5171 26.3633H87.7571L89.41 29.9998H98.683L87.7736 5.99902H85.0462ZM86.7653 24.1814L83.1371 16.1993L79.5089 24.1814H86.7653ZM59.9546 5.99902H51.227V29.9998H59.9546V19.3328L64.3183 29.9998H73.5913L66.0387 11.5377L71.9549 5.99902H68.1366L59.9546 13.6588V5.99902Z" fill="#FFB340"/>
<path fill-rule="evenodd" clip-rule="evenodd" d="M103.763 4.07811C103.763 2.90137 102.809 1.94743 101.632 1.94743C100.455 1.94743 99.5012 2.90137 99.5012 4.07811L99.5012 6.75982C99.5012 7.232 99.6581 7.6908 99.9471 8.06416C101.41 9.95429 102.874 11.8444 104.341 13.7396L103.579 13.7396C102.402 13.7396 101.448 14.6936 101.448 15.8703C101.448 17.047 102.402 18.001 103.579 18.001L106.261 18.001C106.733 18.001 107.192 17.8441 107.565 17.5551C109.457 16.0899 111.347 14.627 113.24 13.1612L113.24 13.9233C113.24 15.1 114.194 16.054 115.371 16.054C116.548 16.054 117.502 15.1 117.502 13.9233L117.502 11.2416C117.502 10.7694 117.345 10.3106 117.056 9.93725C115.589 8.04296 114.132 6.16007 112.662 4.26179L113.424 4.26179C114.601 4.26179 115.555 3.30785 115.555 2.13111C115.555 0.954372 114.601 0.000434931 113.424 0.000434982L110.742 0.000435099C110.27 0.00043512 109.811 0.157281 109.438 0.446335C107.544 1.91288 105.661 3.3706 103.763 4.84024L103.763 4.07811ZM105.795 8.6562L108.157 11.7075L111.208 9.34521L108.846 6.29386L105.795 8.6562Z" fill="#FFB340"/>
</svg>
