<svg width="78" height="20" viewBox="0 0 78 20" fill="none" xmlns="http://www.w3.org/2000/svg">
<path fill-rule="evenodd" clip-rule="evenodd" d="M6.18182 4H0L5.11364 19L5.45455 20H6.54545L9.25 13L11.2955 19L11.6364 20H12.7273L15.4318 13L18.9091 4H17.0909L14.5795 10.5L12.5341 4.5L12.3636 4H10.9091L8.39773 10.5L6.18182 4ZM21.8182 8.8L24 4H25.8182L33.0909 20H26.9091L25.8072 17.5758H19.6474L18.5455 20H16.7273L21.8182 8.8ZM22.7273 10.8L25.146 16.1212H20.3085L22.7273 10.8ZM56.3636 4L54.1818 8.8L49.0909 20H50.9091L52.011 17.5758H58.1708L59.2727 20H65.4545L58.1818 4H56.3636ZM57.5096 16.1212L55.0909 10.8L52.6722 16.1212H57.5096ZM39.6364 4H33.8182V20H39.6364V12.8889L42.5455 20H48.7273L43.6923 7.69231L47.6364 4H45.0909L39.6364 9.10638V4Z" fill="#FFB340"/>
<path fill-rule="evenodd" clip-rule="evenodd" d="M68.8408 2.71831C68.8408 1.93384 68.2049 1.29791 67.4204 1.29791C66.6359 1.29791 66 1.93384 66 2.71831L66 4.50607C66 4.82084 66.1046 5.1267 66.2973 5.3756C67.2728 6.63565 68.2483 7.89568 69.2264 9.15912L68.7184 9.15912C67.9339 9.15912 67.298 9.79506 67.298 10.5795C67.298 11.364 67.9339 11.9999 68.7184 11.9999L70.5061 11.9999C70.8209 11.9999 71.1268 11.8954 71.3757 11.7027C72.6373 10.726 73.897 9.75071 75.1592 8.7735L75.1592 9.28157C75.1592 10.066 75.7951 10.702 76.5796 10.702C77.3641 10.702 78 10.066 78 9.28157L78 7.49382C78 7.17904 77.8954 6.87319 77.7027 6.62428C76.7251 5.36147 75.7533 4.10625 74.7736 2.84076L75.2816 2.84076C76.0661 2.84076 76.702 2.20482 76.702 1.42036C76.702 0.635887 76.0661 -5.19384e-05 75.2816 -5.19041e-05L73.4939 -5.1826e-05C73.1791 -5.18122e-05 72.8732 0.104509 72.6243 0.297206C71.3615 1.27487 70.1063 2.24666 68.8408 3.22638L68.8408 2.71831ZM70.1955 5.77028L71.7703 7.80445L73.8045 6.22961L72.2297 4.19544L70.1955 5.77028Z" fill="#FFB340"/>
</svg>
